<svg width="32" height="32" viewBox="0 0 32 32" fill="none" xmlns="http://www.w3.org/2000/svg">
<g id="cloud-storm">
<path id="Vector (Stroke)" fill-rule="evenodd" clip-rule="evenodd" d="M20.7479 7.29789C21.4731 8.12758 21.3921 9.39129 20.5669 10.1204L16.1757 14.0006L20.2711 15.1039C20.9797 15.2948 21.5263 15.8623 21.6932 16.5806C21.8602 17.2988 21.6204 18.0511 21.0694 18.538L13.8863 24.8851C13.0611 25.6142 11.8042 25.5327 11.079 24.703C10.3538 23.8733 10.4349 22.6096 11.2601 21.8805L15.6513 18.0004L11.5558 16.897C10.8472 16.7061 10.3006 16.1386 10.1337 15.4204C9.96674 14.7021 10.2065 13.9498 10.7576 13.4629L17.9406 7.11585C18.7658 6.38669 20.0227 6.46819 20.7479 7.29789Z" fill="#205BF1"/>
</g>
</svg>
