<svg width="75" height="20" viewBox="0 0 75 20" fill="none" xmlns="http://www.w3.org/2000/svg">
<g id="Quickit">
<path d="M14.4553 19.252L12.856 17.404C12.1319 17.9 11.3521 18.288 10.5167 18.568C9.68124 18.848 8.82191 18.988 7.93872 18.988C6.80091 18.988 5.76653 18.764 4.8356 18.316C3.90466 17.8601 3.11695 17.236 2.47245 16.444C1.82796 15.644 1.36647 14.716 1.08798 13.66C0.809499 12.604 0.753802 11.476 0.920893 10.276C1.08798 9.07605 1.45797 7.95205 2.03086 6.90405C2.60374 5.84805 3.32382 4.92005 4.1911 4.12005C5.05839 3.32005 6.02115 2.69605 7.07939 2.24805C8.13764 1.79205 9.23566 1.56405 10.3735 1.56405C11.5113 1.56405 12.5417 1.79205 13.4647 2.24805C14.3956 2.69605 15.1833 3.32005 15.8278 4.12005C16.4723 4.92005 16.9338 5.84805 17.2123 6.90405C17.4908 7.95205 17.5465 9.07605 17.3794 10.276C17.2521 11.212 16.9935 12.104 16.6036 12.952C16.2217 13.792 15.7443 14.568 15.1714 15.28L16.8065 17.188L14.4553 19.252ZM8.34451 16.06C8.806 16.06 9.26749 15.992 9.72898 15.856C10.1984 15.712 10.636 15.512 11.0418 15.256L9.74091 13.732L12.0921 11.656L13.3095 13.096C13.6198 12.68 13.8744 12.232 14.0733 11.752C14.2723 11.272 14.4036 10.78 14.4672 10.276C14.5786 9.47605 14.5428 8.72805 14.3598 8.03205C14.1847 7.33605 13.8903 6.72405 13.4766 6.19605C13.0628 5.66005 12.5536 5.24405 11.9489 4.94805C11.3521 4.64405 10.6917 4.49205 9.96768 4.49205C9.22771 4.49205 8.51558 4.64405 7.8313 4.94805C7.14702 5.25205 6.52242 5.67205 5.9575 6.20805C5.40053 6.73605 4.93108 7.34805 4.54916 8.04405C4.17519 8.74005 3.93649 9.48405 3.83305 10.276C3.72166 11.068 3.75348 11.816 3.92853 12.52C4.11154 13.216 4.40991 13.832 4.82366 14.368C5.23741 14.896 5.74266 15.312 6.33942 15.616C6.94413 15.912 7.61249 16.06 8.34451 16.06Z" fill="url(#paint0_linear_1_700)"/>
<path d="M18.7521 14.308L19.8024 6.74805H22.7145L21.7597 13.54C21.704 14.012 21.7637 14.444 21.9387 14.836C22.1138 15.22 22.3764 15.528 22.7265 15.76C23.0845 15.984 23.4943 16.096 23.9558 16.096C24.4252 16.096 24.8668 15.984 25.2806 15.76C25.7023 15.528 26.0524 15.22 26.3309 14.836C26.6173 14.444 26.7923 14.012 26.856 13.54L27.8108 6.74805H30.723L29.064 18.748H26.1518L26.2831 17.656C25.8137 18.088 25.2766 18.432 24.6719 18.688C24.0751 18.936 23.4545 19.06 22.81 19.06C21.9427 19.06 21.1789 18.848 20.5185 18.424C19.866 17.9921 19.3767 17.42 19.0505 16.708C18.7322 15.988 18.6327 15.188 18.7521 14.308Z" fill="url(#paint1_linear_1_700)"/>
<path d="M33.124 6.74805H36.0361L34.3652 18.748H31.4531L33.124 6.74805ZM34.8187 5.20005C34.3891 5.20005 34.0469 5.06005 33.7923 4.78005C33.5377 4.49205 33.4422 4.13205 33.5059 3.70005C33.5695 3.27605 33.7645 2.92005 34.0907 2.63205C34.4249 2.34405 34.8068 2.20005 35.2365 2.20005C35.6502 2.20005 35.9804 2.34405 36.2271 2.63205C36.4817 2.92005 36.5812 3.27605 36.5255 3.70005C36.4618 4.13205 36.2669 4.49205 35.9406 4.78005C35.6224 5.06005 35.2484 5.20005 34.8187 5.20005Z" fill="url(#paint2_linear_1_700)"/>
<path d="M44.8673 15.136L47.2782 16.564C46.6258 17.316 45.854 17.92 44.9628 18.376C44.0717 18.832 43.1367 19.06 42.1581 19.06C41.06 19.06 40.0973 18.776 39.2698 18.208C38.4502 17.64 37.8376 16.88 37.4318 15.928C37.0339 14.968 36.9146 13.908 37.0737 12.748C37.1931 11.868 37.4596 11.048 37.8734 10.288C38.2951 9.52005 38.8202 8.84805 39.4488 8.27205C40.0774 7.68805 40.7736 7.23205 41.5374 6.90405C42.3092 6.57605 43.1049 6.41205 43.9245 6.41205C44.9031 6.41205 45.7744 6.64005 46.5382 7.09605C47.31 7.55205 47.9148 8.16405 48.3524 8.93205L45.5238 10.348C45.2851 10.028 44.9907 9.78005 44.6406 9.60405C44.2905 9.42805 43.9165 9.34005 43.5187 9.34005C42.9378 9.34005 42.3968 9.50005 41.8955 9.82005C41.3942 10.132 40.9725 10.548 40.6304 11.068C40.2882 11.58 40.0734 12.14 39.9859 12.748C39.9063 13.348 39.962 13.908 40.153 14.428C40.3519 14.94 40.6582 15.352 41.072 15.664C41.4937 15.976 41.991 16.132 42.5639 16.132C42.9776 16.132 43.3834 16.044 43.7812 15.868C44.187 15.684 44.5491 15.44 44.8673 15.136Z" fill="url(#paint3_linear_1_700)"/>
<path d="M59.4195 18.748H56.0658L54.001 14.032L52.0437 16.036L51.6737 18.748H48.7615L51.2679 0.748047H54.18L52.6762 11.488L57.2951 6.74805H61.1024L56.3284 11.656L59.4195 18.748Z" fill="url(#paint4_linear_1_700)"/>
<path d="M62.8218 6.74805H65.7339L64.063 18.748H61.1509L62.8218 6.74805ZM64.5166 5.20005C64.0869 5.20005 63.7448 5.06005 63.4902 4.78005C63.2355 4.49205 63.1401 4.13205 63.2037 3.70005C63.2674 3.27605 63.4623 2.92005 63.7885 2.63205C64.1227 2.34405 64.5046 2.20005 64.9343 2.20005C65.348 2.20005 65.6783 2.34405 65.9249 2.63205C66.1795 2.92005 66.279 3.27605 66.2233 3.70005C66.1596 4.13205 65.9647 4.49205 65.6385 4.78005C65.3202 5.06005 64.9462 5.20005 64.5166 5.20005Z" fill="url(#paint5_linear_1_700)"/>
<path d="M74.5942 9.67605H72.2788L71.0137 18.748H68.1016L69.3667 9.67605H67.6003L68.0061 6.74805H69.7725L70.2976 2.98005H73.2098L72.6846 6.74805H75L74.5942 9.67605Z" fill="url(#paint6_linear_1_700)"/>
</g>
<defs>
<linearGradient id="paint0_linear_1_700" x1="-0.0457896" y1="12.748" x2="75.543" y2="12.748" gradientUnits="userSpaceOnUse">
<stop stop-color="#205BF1"/>
<stop offset="0.708333" stop-color="white"/>
</linearGradient>
<linearGradient id="paint1_linear_1_700" x1="-0.0457896" y1="12.748" x2="75.543" y2="12.748" gradientUnits="userSpaceOnUse">
<stop stop-color="#205BF1"/>
<stop offset="0.708333" stop-color="white"/>
</linearGradient>
<linearGradient id="paint2_linear_1_700" x1="-0.0457896" y1="12.748" x2="75.543" y2="12.748" gradientUnits="userSpaceOnUse">
<stop stop-color="#205BF1"/>
<stop offset="0.708333" stop-color="white"/>
</linearGradient>
<linearGradient id="paint3_linear_1_700" x1="-0.0457896" y1="12.748" x2="75.543" y2="12.748" gradientUnits="userSpaceOnUse">
<stop stop-color="#205BF1"/>
<stop offset="0.708333" stop-color="white"/>
</linearGradient>
<linearGradient id="paint4_linear_1_700" x1="-0.0457896" y1="12.748" x2="75.543" y2="12.748" gradientUnits="userSpaceOnUse">
<stop stop-color="#205BF1"/>
<stop offset="0.708333" stop-color="white"/>
</linearGradient>
<linearGradient id="paint5_linear_1_700" x1="-0.0457896" y1="12.748" x2="75.543" y2="12.748" gradientUnits="userSpaceOnUse">
<stop stop-color="#205BF1"/>
<stop offset="0.708333" stop-color="white"/>
</linearGradient>
<linearGradient id="paint6_linear_1_700" x1="-0.0457896" y1="12.748" x2="75.543" y2="12.748" gradientUnits="userSpaceOnUse">
<stop stop-color="#205BF1"/>
<stop offset="0.708333" stop-color="white"/>
</linearGradient>
</defs>
</svg>
