<svg width="24" height="24" viewBox="0 0 24 24" fill="none" xmlns="http://www.w3.org/2000/svg">
<g id="brand-linkedin">
<path id="Vector (Stroke)" fill-rule="evenodd" clip-rule="evenodd" d="M6 5C5.44772 5 5 5.44772 5 6V18C5 18.5523 5.44772 19 6 19H18C18.5523 19 19 18.5523 19 18V6C19 5.44772 18.5523 5 18 5H6ZM3 6C3 4.34315 4.34315 3 6 3H18C19.6569 3 21 4.34315 21 6V18C21 19.6569 19.6569 21 18 21H6C4.34315 21 3 19.6569 3 18V6ZM8 7C8.55228 7 9 7.44772 9 8V8.01C9 8.56228 8.55228 9.01 8 9.01C7.44772 9.01 7 8.56228 7 8.01V8C7 7.44772 7.44772 7 8 7ZM8 10C8.55228 10 9 10.4477 9 11V16C9 16.5523 8.55228 17 8 17C7.44772 17 7 16.5523 7 16V11C7 10.4477 7.44772 10 8 10ZM11 16C11 16.5523 11.4477 17 12 17C12.5523 17 13 16.5523 13 16V13C13 12.7348 13.1054 12.4804 13.2929 12.2929C13.4804 12.1054 13.7348 12 14 12C14.2652 12 14.5196 12.1054 14.7071 12.2929C14.8946 12.4804 15 12.7348 15 13V16C15 16.5523 15.4477 17 16 17C16.5523 17 17 16.5523 17 16V13C17 12.2043 16.6839 11.4413 16.1213 10.8787C15.5587 10.3161 14.7957 10 14 10C13.5483 10 13.1071 10.1019 12.7071 10.2929C12.5261 10.1119 12.2761 10 12 10C11.4477 10 11 10.4477 11 11V16Z" fill="#1F2025"/>
</g>
</svg>
