<svg width="20" height="20" viewBox="0 0 20 20" fill="none" xmlns="http://www.w3.org/2000/svg">
<g id="video">
<path id="Vector (Stroke)" fill-rule="evenodd" clip-rule="evenodd" d="M4.16663 5.83268C3.70639 5.83268 3.33329 6.20578 3.33329 6.66602V13.3327C3.33329 13.7929 3.70639 14.166 4.16663 14.166H10.8333C11.2935 14.166 11.6666 13.7929 11.6666 13.3327V6.66602C11.6666 6.20578 11.2935 5.83268 10.8333 5.83268H4.16663ZM13.3333 6.98455V6.66602C13.3333 5.2853 12.214 4.16602 10.8333 4.16602H4.16663C2.78591 4.16602 1.66663 5.2853 1.66663 6.66602V13.3327C1.66663 14.7134 2.78591 15.8327 4.16663 15.8327H10.8333C12.214 15.8327 13.3333 14.7134 13.3333 13.3327V13.0143L15.9215 14.3082C16.1755 14.4351 16.4579 14.4951 16.7416 14.4823C17.0253 14.4695 17.301 14.3845 17.5426 14.2352C17.7842 14.086 17.9837 13.8774 18.1221 13.6294C18.2604 13.3814 18.3331 13.1022 18.3333 12.8182V7.18111C18.3331 6.89713 18.2604 6.61745 18.1221 6.36946C17.9837 6.12146 17.7842 5.91294 17.5426 5.76368C17.301 5.61442 17.0253 5.52936 16.7416 5.51658C16.4579 5.5038 16.1757 5.56373 15.9216 5.69067L13.3333 6.98455ZM13.3333 8.84786V11.151L16.6666 12.8173V7.18156L13.3333 8.84786Z" fill="#205BF1"/>
</g>
</svg>
