<svg width="20" height="20" viewBox="0 0 20 20" fill="none" xmlns="http://www.w3.org/2000/svg">
<g id="news">
<path id="Vector (Stroke)" fill-rule="evenodd" clip-rule="evenodd" d="M2.98816 2.98816C3.30072 2.6756 3.72464 2.5 4.16667 2.5H12.5C12.942 2.5 13.366 2.6756 13.6785 2.98816C13.9911 3.30072 14.1667 3.72464 14.1667 4.16667H15.8333C16.2754 4.16667 16.6993 4.34226 17.0118 4.65482C17.3244 4.96738 17.5 5.39131 17.5 5.83333V15C17.5 15.663 17.2366 16.2989 16.7678 16.7678C16.2989 17.2366 15.663 17.5 15 17.5H5.83333C4.94928 17.5 4.10143 17.1488 3.47631 16.5237C2.85119 15.8986 2.5 15.0507 2.5 14.1667V4.16667C2.5 3.72464 2.6756 3.30072 2.98816 2.98816ZM12.643 15.8333H5.83333C5.39131 15.8333 4.96738 15.6577 4.65482 15.3452C4.34226 15.0326 4.16667 14.6087 4.16667 14.1667L4.16667 4.16667L12.5 4.16667V15C12.5 15.2866 12.5492 15.5682 12.643 15.8333ZM14.1667 5.83333V15C14.1667 15.221 14.2545 15.433 14.4107 15.5893C14.567 15.7455 14.779 15.8333 15 15.8333C15.221 15.8333 15.433 15.7455 15.5893 15.5893C15.7455 15.433 15.8333 15.221 15.8333 15V5.83333H14.1667ZM5.83333 6.66667C5.83333 6.20643 6.20643 5.83333 6.66667 5.83333H10C10.4602 5.83333 10.8333 6.20643 10.8333 6.66667C10.8333 7.1269 10.4602 7.5 10 7.5H6.66667C6.20643 7.5 5.83333 7.1269 5.83333 6.66667ZM5.83333 10C5.83333 9.53976 6.20643 9.16667 6.66667 9.16667H10C10.4602 9.16667 10.8333 9.53976 10.8333 10C10.8333 10.4602 10.4602 10.8333 10 10.8333H6.66667C6.20643 10.8333 5.83333 10.4602 5.83333 10ZM5.83333 13.3333C5.83333 12.8731 6.20643 12.5 6.66667 12.5H10C10.4602 12.5 10.8333 12.8731 10.8333 13.3333C10.8333 13.7936 10.4602 14.1667 10 14.1667H6.66667C6.20643 14.1667 5.83333 13.7936 5.83333 13.3333Z" fill="#205BF1"/>
</g>
</svg>
